***************************************************************

[IMG]http://www.torrentforce.org/imghost/3/greyshadow_tfbanner.png[/IMG]

***************************************************************

[IMG]http://www.torrentforce.org/imghost/4/greyshadow_larrycrowne.jpg[/IMG]

***************************************************************

FILM TITLE: Larry Crowne (2011)

***************************************************************

Genre: Comedy | Drama | Romance   

Rated PG-13 for brief strong language and some sexual content

Release: 1 July 2011 (UK)

Director: Tom Hanks

Writer: Tom Hanks, Nia Vardalos

Stars: Tom Hanks, Julia Roberts and Sarah Mahoney

Country: USA

Language: English

Plot:
After losing his job, a middle-aged man reinvents himself by going 
back to college.

IMDB Rating: 5.9/10 from 6,320 users   Metascore: 41/100
 
http://www.imdb.com/title/tt1583420/ 

****************************************************************

[IMG]http://www.torrentforce.org/imghost/4/greyshadow_larrycrownex264megui.png[/IMG]
[IMG]http://www.torrentforce.org/imghost/4/greyshadow_larrycrownex2641.png[/IMG]
[IMG]http://www.torrentforce.org/imghost/4/greyshadow_larrycrownex2642.png[/IMG]
[IMG]http://www.torrentforce.org/imghost/4/greyshadow_larrycrownex2643.png[/IMG]
[IMG]http://www.torrentforce.org/imghost/4/greyshadow_larrycrownex2644.png[/IMG]
[IMG]http://www.torrentforce.org/imghost/4/greyshadow_larrycrownex264ps3.png[/IMG]
[IMG]http://www.torrentforce.org/imghost/4/greyshadow_larrycrownex264wd.png[/IMG]

****************************************************************

[IMG]http://www.torrentforce.org/imghost/2/greyshadow_mediainfo.png[/IMG]
General
Complete name                    : Larry Crowne 2011 720p BDRip x264 ac3 (mp4) [TFRG].mp4
Format                           : MPEG-4
Format profile                   : Base Media
Codec ID                         : isom
File size                        : 2.92 GiB
Duration                         : 1h 38mn
Overall bit rate                 : 4242 Kbps
Encoded date                     : UTC 2011-11-07 22:04:18
Tagged date                      : UTC 2011-11-07 22:04:18

Video
ID                               : 1
Format                           : AVC
Format/Info                      : Advanced Video Codec
Format profile                   : High@L4.1
Format settings, CABAC           : Yes
Format settings, ReFrames        : 12 frames
Codec ID                         : avc1
Codec ID/Info                    : Advanced Video Coding
Duration                         : 1h 38mn
Bit rate                         : 3600 Kbps
Maximum bit rate                 : 21.3 Mbps
Width                            : 1280 pixels
Height                           : 528 pixels
Display aspect ratio             : 2.40:1
Frame rate mode                  : Constant
Frame rate                       : 23.976 fps
Color space                      : YUV
Chroma subsampling               : 4:2:0
Bit depth                        : 8 bits
Scan type                        : Progressive
Bits/(Pixel*Frame)               : 0.222
Stream size                      : 2.48 GiB (85%)
Title                            : Larry Crowne AVC MPEG4 Video
Writing library                  : x264 core 119 r2106 07efeb4
Encoded date                     : UTC 2011-11-06 19:22:28
Tagged date                      : UTC 2011-11-07 22:06:34
Color primaries                  : BT.709-5, BT.1361, IEC 61966-2-4, SMPTE RP177
Transfer characteristics         : BT.709-5, BT.1361
Matrix coefficients              : BT.709-5, BT.1361, IEC 61966-2-4 709, SMPTE RP177

Audio
ID                               : 2
Format                           : AC-3
Format/Info                      : Audio Coding 3
Mode extension                   : CM (complete main)
Codec ID                         : ac-3
Duration                         : 1h 38mn
Bit rate mode                    : Constant
Bit rate                         : 640 Kbps
Channel(s)                       : 6 channels
Channel positions                : Front: L C R, Side: L R, LFE
Sampling rate                    : 48.0 KHz
Bit depth                        : 16 bits
Compression mode                 : Lossy
Stream size                      : 451 MiB (15%)
Title                            : Larry Crowne AC3 5.1 Audio
Language                         : English
Encoded date                     : UTC 2011-11-07 22:06:11
Tagged date                      : UTC 2011-11-07 22:06:34

****************************************************************

Video Source: Larry Crowne 2011 BluRay 1080p AVC DTS-HD MA5.1-CHDBits (25.9GB)

Thanks: (chdbits.org)

****************************************************************

I provide a small sample, so please download this to check your 
compatibility first if you are unsure.

****************************************************************

7th October 2011

I am re-introducing my warning to all downloaders, please please
please use a proxy or vpn service, it is the only secure way to
keep your own ip address from being seen during downloading or
uploading/seeding, this WILL stop isp letters, as for advice to 
which one then thats simple, vpntunnel.se server based in Sweden 
is the right one to use, I have cancelled my vpn and transfered 
to a Swedish one already !!! enough said. 

****************************************************************

A big thanks to all the sites out there who care and share and
who make it possible for you to download this torrent for free.

Greetz to Westy, Ripwyn, mustang, noir, Blackjesus, MXMG, The Stig 
and all the other outstanding members of our community of file 
sharers and a special mention to our friends at 1337x.

****************************************************************